<?xml version="1.0" encoding="utf-8" standalone="no"?>
<!DOCTYPE svg PUBLIC "-//W3C//DTD SVG 1.1//EN"
  "http://www.w3.org/Graphics/SVG/1.1/DTD/svg11.dtd">
<!-- Created with matplotlib (http://matplotlib.org/) -->
<svg height="709.92pt" version="1.1" viewBox="0 0 1347.12 709.92" width="1347.12pt" xmlns="http://www.w3.org/2000/svg" xmlns:xlink="http://www.w3.org/1999/xlink">
 <defs>
  <style type="text/css">
*{stroke-linecap:butt;stroke-linejoin:round;}
  </style>
 </defs>
 <g id="figure_1">
  <g id="patch_1">
   <path d="M 0 709.92 
L 1347.12 709.92 
L 1347.12 0 
L 0 0 
z
" style="fill:#ffffff;"/>
  </g>
  <g id="axes_1">
   <g id="patch_2">
    <path d="M 168.39 631.8288 
L 1212.408 631.8288 
L 1212.408 85.1904 
L 168.39 85.1904 
z
" style="fill:#eaeaf2;"/>
   </g>
   <g id="matplotlib.axis_1">
    <g id="xtick_1">
     <g id="line2d_1">
      <path clip-path="url(#pa4a58e6f03)" d="M 215.845364 631.8288 
L 215.845364 85.1904 
" style="fill:none;stroke:#ffffff;stroke-linecap:round;"/>
     </g>
     <g id="line2d_2"/>
     <g id="text_1">
      <!-- 201002 -->
      <defs>
       <path d="M 19.1875 8.296875 
L 53.609375 8.296875 
L 53.609375 0 
L 7.328125 0 
L 7.328125 8.296875 
Q 12.9375 14.109375 22.625 23.890625 
Q 32.328125 33.6875 34.8125 36.53125 
Q 39.546875 41.84375 41.421875 45.53125 
Q 43.3125 49.21875 43.3125 52.78125 
Q 43.3125 58.59375 39.234375 62.25 
Q 35.15625 65.921875 28.609375 65.921875 
Q 23.96875 65.921875 18.8125 64.3125 
Q 13.671875 62.703125 7.8125 59.421875 
L 7.8125 69.390625 
Q 13.765625 71.78125 18.9375 73 
Q 24.125 74.21875 28.421875 74.21875 
Q 39.75 74.21875 46.484375 68.546875 
Q 53.21875 62.890625 53.21875 53.421875 
Q 53.21875 48.921875 51.53125 44.890625 
Q 49.859375 40.875 45.40625 35.40625 
Q 44.1875 33.984375 37.640625 27.21875 
Q 31.109375 20.453125 19.1875 8.296875 
z
" id="DejaVuSans-32"/>
       <path d="M 31.78125 66.40625 
Q 24.171875 66.40625 20.328125 58.90625 
Q 16.5 51.421875 16.5 36.375 
Q 16.5 21.390625 20.328125 13.890625 
Q 24.171875 6.390625 31.78125 6.390625 
Q 39.453125 6.390625 43.28125 13.890625 
Q 47.125 21.390625 47.125 36.375 
Q 47.125 51.421875 43.28125 58.90625 
Q 39.453125 66.40625 31.78125 66.40625 
z
M 31.78125 74.21875 
Q 44.046875 74.21875 50.515625 64.515625 
Q 56.984375 54.828125 56.984375 36.375 
Q 56.984375 17.96875 50.515625 8.265625 
Q 44.046875 -1.421875 31.78125 -1.421875 
Q 19.53125 -1.421875 13.0625 8.265625 
Q 6.59375 17.96875 6.59375 36.375 
Q 6.59375 54.828125 13.0625 64.515625 
Q 19.53125 74.21875 31.78125 74.21875 
z
" id="DejaVuSans-30"/>
       <path d="M 12.40625 8.296875 
L 28.515625 8.296875 
L 28.515625 63.921875 
L 10.984375 60.40625 
L 10.984375 69.390625 
L 28.421875 72.90625 
L 38.28125 72.90625 
L 38.28125 8.296875 
L 54.390625 8.296875 
L 54.390625 0 
L 12.40625 0 
z
" id="DejaVuSans-31"/>
      </defs>
      <g style="fill:#262626;" transform="translate(218.604739 677.0038)rotate(-90)scale(0.1 -0.1)">
       <use xlink:href="#DejaVuSans-32"/>
       <use x="63.623047" xlink:href="#DejaVuSans-30"/>
       <use x="127.246094" xlink:href="#DejaVuSans-31"/>
       <use x="190.869141" xlink:href="#DejaVuSans-30"/>
       <use x="254.492188" xlink:href="#DejaVuSans-30"/>
       <use x="318.115234" xlink:href="#DejaVuSans-32"/>
      </g>
     </g>
    </g>
    <g id="xtick_2">
     <g id="line2d_3">
      <path clip-path="url(#pa4a58e6f03)" d="M 279.119182 631.8288 
L 279.119182 85.1904 
" style="fill:none;stroke:#ffffff;stroke-linecap:round;"/>
     </g>
     <g id="line2d_4"/>
     <g id="text_2">
      <!-- 201003 -->
      <defs>
       <path d="M 40.578125 39.3125 
Q 47.65625 37.796875 51.625 33 
Q 55.609375 28.21875 55.609375 21.1875 
Q 55.609375 10.40625 48.1875 4.484375 
Q 40.765625 -1.421875 27.09375 -1.421875 
Q 22.515625 -1.421875 17.65625 -0.515625 
Q 12.796875 0.390625 7.625 2.203125 
L 7.625 11.71875 
Q 11.71875 9.328125 16.59375 8.109375 
Q 21.484375 6.890625 26.8125 6.890625 
Q 36.078125 6.890625 40.9375 10.546875 
Q 45.796875 14.203125 45.796875 21.1875 
Q 45.796875 27.640625 41.28125 31.265625 
Q 36.765625 34.90625 28.71875 34.90625 
L 20.21875 34.90625 
L 20.21875 43.015625 
L 29.109375 43.015625 
Q 36.375 43.015625 40.234375 45.921875 
Q 44.09375 48.828125 44.09375 54.296875 
Q 44.09375 59.90625 40.109375 62.90625 
Q 36.140625 65.921875 28.71875 65.921875 
Q 24.65625 65.921875 20.015625 65.03125 
Q 15.375 64.15625 9.8125 62.3125 
L 9.8125 71.09375 
Q 15.4375 72.65625 20.34375 73.4375 
Q 25.25 74.21875 29.59375 74.21875 
Q 40.828125 74.21875 47.359375 69.109375 
Q 53.90625 64.015625 53.90625 55.328125 
Q 53.90625 49.265625 50.4375 45.09375 
Q 46.96875 40.921875 40.578125 39.3125 
z
" id="DejaVuSans-33"/>
      </defs>
      <g style="fill:#262626;" transform="translate(281.878557 677.0038)rotate(-90)scale(0.1 -0.1)">
       <use xlink:href="#DejaVuSans-32"/>
       <use x="63.623047" xlink:href="#DejaVuSans-30"/>
       <use x="127.246094" xlink:href="#DejaVuSans-31"/>
       <use x="190.869141" xlink:href="#DejaVuSans-30"/>
       <use x="254.492188" xlink:href="#DejaVuSans-30"/>
       <use x="318.115234" xlink:href="#DejaVuSans-33"/>
      </g>
     </g>
    </g>
    <g id="xtick_3">
     <g id="line2d_5">
      <path clip-path="url(#pa4a58e6f03)" d="M 342.393 631.8288 
L 342.393 85.1904 
" style="fill:none;stroke:#ffffff;stroke-linecap:round;"/>
     </g>
     <g id="line2d_6"/>
     <g id="text_3">
      <!-- 201004 -->
      <defs>
       <path d="M 37.796875 64.3125 
L 12.890625 25.390625 
L 37.796875 25.390625 
z
M 35.203125 72.90625 
L 47.609375 72.90625 
L 47.609375 25.390625 
L 58.015625 25.390625 
L 58.015625 17.1875 
L 47.609375 17.1875 
L 47.609375 0 
L 37.796875 0 
L 37.796875 17.1875 
L 4.890625 17.1875 
L 4.890625 26.703125 
z
" id="DejaVuSans-34"/>
      </defs>
      <g style="fill:#262626;" transform="translate(345.152375 677.0038)rotate(-90)scale(0.1 -0.1)">
       <use xlink:href="#DejaVuSans-32"/>
       <use x="63.623047" xlink:href="#DejaVuSans-30"/>
       <use x="127.246094" xlink:href="#DejaVuSans-31"/>
       <use x="190.869141" xlink:href="#DejaVuSans-30"/>
       <use x="254.492188" xlink:href="#DejaVuSans-30"/>
       <use x="318.115234" xlink:href="#DejaVuSans-34"/>
      </g>
     </g>
    </g>
    <g id="xtick_4">
     <g id="line2d_7">
      <path clip-path="url(#pa4a58e6f03)" d="M 405.666818 631.8288 
L 405.666818 85.1904 
" style="fill:none;stroke:#ffffff;stroke-linecap:round;"/>
     </g>
     <g id="line2d_8"/>
     <g id="text_4">
      <!-- 201005 -->
      <defs>
       <path d="M 10.796875 72.90625 
L 49.515625 72.90625 
L 49.515625 64.59375 
L 19.828125 64.59375 
L 19.828125 46.734375 
Q 21.96875 47.46875 24.109375 47.828125 
Q 26.265625 48.1875 28.421875 48.1875 
Q 40.625 48.1875 47.75 41.5 
Q 54.890625 34.8125 54.890625 23.390625 
Q 54.890625 11.625 47.5625 5.09375 
Q 40.234375 -1.421875 26.90625 -1.421875 
Q 22.3125 -1.421875 17.546875 -0.640625 
Q 12.796875 0.140625 7.71875 1.703125 
L 7.71875 11.625 
Q 12.109375 9.234375 16.796875 8.0625 
Q 21.484375 6.890625 26.703125 6.890625 
Q 35.15625 6.890625 40.078125 11.328125 
Q 45.015625 15.765625 45.015625 23.390625 
Q 45.015625 31 40.078125 35.4375 
Q 35.15625 39.890625 26.703125 39.890625 
Q 22.75 39.890625 18.8125 39.015625 
Q 14.890625 38.140625 10.796875 36.28125 
z
" id="DejaVuSans-35"/>
      </defs>
      <g style="fill:#262626;" transform="translate(408.426193 677.0038)rotate(-90)scale(0.1 -0.1)">
       <use xlink:href="#DejaVuSans-32"/>
       <use x="63.623047" xlink:href="#DejaVuSans-30"/>
       <use x="127.246094" xlink:href="#DejaVuSans-31"/>
       <use x="190.869141" xlink:href="#DejaVuSans-30"/>
       <use x="254.492188" xlink:href="#DejaVuSans-30"/>
       <use x="318.115234" xlink:href="#DejaVuSans-35"/>
      </g>
     </g>
    </g>
    <g id="xtick_5">
     <g id="line2d_9">
      <path clip-path="url(#pa4a58e6f03)" d="M 468.940636 631.8288 
L 468.940636 85.1904 
" style="fill:none;stroke:#ffffff;stroke-linecap:round;"/>
     </g>
     <g id="line2d_10"/>
     <g id="text_5">
      <!-- 201006 -->
      <defs>
       <path d="M 33.015625 40.375 
Q 26.375 40.375 22.484375 35.828125 
Q 18.609375 31.296875 18.609375 23.390625 
Q 18.609375 15.53125 22.484375 10.953125 
Q 26.375 6.390625 33.015625 6.390625 
Q 39.65625 6.390625 43.53125 10.953125 
Q 47.40625 15.53125 47.40625 23.390625 
Q 47.40625 31.296875 43.53125 35.828125 
Q 39.65625 40.375 33.015625 40.375 
z
M 52.59375 71.296875 
L 52.59375 62.3125 
Q 48.875 64.0625 45.09375 64.984375 
Q 41.3125 65.921875 37.59375 65.921875 
Q 27.828125 65.921875 22.671875 59.328125 
Q 17.53125 52.734375 16.796875 39.40625 
Q 19.671875 43.65625 24.015625 45.921875 
Q 28.375 48.1875 33.59375 48.1875 
Q 44.578125 48.1875 50.953125 41.515625 
Q 57.328125 34.859375 57.328125 23.390625 
Q 57.328125 12.15625 50.6875 5.359375 
Q 44.046875 -1.421875 33.015625 -1.421875 
Q 20.359375 -1.421875 13.671875 8.265625 
Q 6.984375 17.96875 6.984375 36.375 
Q 6.984375 53.65625 15.1875 63.9375 
Q 23.390625 74.21875 37.203125 74.21875 
Q 40.921875 74.21875 44.703125 73.484375 
Q 48.484375 72.75 52.59375 71.296875 
z
" id="DejaVuSans-36"/>
      </defs>
      <g style="fill:#262626;" transform="translate(471.700011 677.0038)rotate(-90)scale(0.1 -0.1)">
       <use xlink:href="#DejaVuSans-32"/>
       <use x="63.623047" xlink:href="#DejaVuSans-30"/>
       <use x="127.246094" xlink:href="#DejaVuSans-31"/>
       <use x="190.869141" xlink:href="#DejaVuSans-30"/>
       <use x="254.492188" xlink:href="#DejaVuSans-30"/>
       <use x="318.115234" xlink:href="#DejaVuSans-36"/>
      </g>
     </g>
    </g>
    <g id="xtick_6">
     <g id="line2d_11">
      <path clip-path="url(#pa4a58e6f03)" d="M 532.214455 631.8288 
L 532.214455 85.1904 
" style="fill:none;stroke:#ffffff;stroke-linecap:round;"/>
     </g>
     <g id="line2d_12"/>
     <g id="text_6">
      <!-- 201007 -->
      <defs>
       <path d="M 8.203125 72.90625 
L 55.078125 72.90625 
L 55.078125 68.703125 
L 28.609375 0 
L 18.3125 0 
L 43.21875 64.59375 
L 8.203125 64.59375 
z
" id="DejaVuSans-37"/>
      </defs>
      <g style="fill:#262626;" transform="translate(534.97383 677.0038)rotate(-90)scale(0.1 -0.1)">
       <use xlink:href="#DejaVuSans-32"/>
       <use x="63.623047" xlink:href="#DejaVuSans-30"/>
       <use x="127.246094" xlink:href="#DejaVuSans-31"/>
       <use x="190.869141" xlink:href="#DejaVuSans-30"/>
       <use x="254.492188" xlink:href="#DejaVuSans-30"/>
       <use x="318.115234" xlink:href="#DejaVuSans-37"/>
      </g>
     </g>
    </g>
    <g id="xtick_7">
     <g id="line2d_13">
      <path clip-path="url(#pa4a58e6f03)" d="M 595.488273 631.8288 
L 595.488273 85.1904 
" style="fill:none;stroke:#ffffff;stroke-linecap:round;"/>
     </g>
     <g id="line2d_14"/>
     <g id="text_7">
      <!-- 201008 -->
      <defs>
       <path d="M 31.78125 34.625 
Q 24.75 34.625 20.71875 30.859375 
Q 16.703125 27.09375 16.703125 20.515625 
Q 16.703125 13.921875 20.71875 10.15625 
Q 24.75 6.390625 31.78125 6.390625 
Q 38.8125 6.390625 42.859375 10.171875 
Q 46.921875 13.96875 46.921875 20.515625 
Q 46.921875 27.09375 42.890625 30.859375 
Q 38.875 34.625 31.78125 34.625 
z
M 21.921875 38.8125 
Q 15.578125 40.375 12.03125 44.71875 
Q 8.5 49.078125 8.5 55.328125 
Q 8.5 64.0625 14.71875 69.140625 
Q 20.953125 74.21875 31.78125 74.21875 
Q 42.671875 74.21875 48.875 69.140625 
Q 55.078125 64.0625 55.078125 55.328125 
Q 55.078125 49.078125 51.53125 44.71875 
Q 48 40.375 41.703125 38.8125 
Q 48.828125 37.15625 52.796875 32.3125 
Q 56.78125 27.484375 56.78125 20.515625 
Q 56.78125 9.90625 50.3125 4.234375 
Q 43.84375 -1.421875 31.78125 -1.421875 
Q 19.734375 -1.421875 13.25 4.234375 
Q 6.78125 9.90625 6.78125 20.515625 
Q 6.78125 27.484375 10.78125 32.3125 
Q 14.796875 37.15625 21.921875 38.8125 
z
M 18.3125 54.390625 
Q 18.3125 48.734375 21.84375 45.5625 
Q 25.390625 42.390625 31.78125 42.390625 
Q 38.140625 42.390625 41.71875 45.5625 
Q 45.3125 48.734375 45.3125 54.390625 
Q 45.3125 60.0625 41.71875 63.234375 
Q 38.140625 66.40625 31.78125 66.40625 
Q 25.390625 66.40625 21.84375 63.234375 
Q 18.3125 60.0625 18.3125 54.390625 
z
" id="DejaVuSans-38"/>
      </defs>
      <g style="fill:#262626;" transform="translate(598.247648 677.0038)rotate(-90)scale(0.1 -0.1)">
       <use xlink:href="#DejaVuSans-32"/>
       <use x="63.623047" xlink:href="#DejaVuSans-30"/>
       <use x="127.246094" xlink:href="#DejaVuSans-31"/>
       <use x="190.869141" xlink:href="#DejaVuSans-30"/>
       <use x="254.492188" xlink:href="#DejaVuSans-30"/>
       <use x="318.115234" xlink:href="#DejaVuSans-38"/>
      </g>
     </g>
    </g>
    <g id="xtick_8">
     <g id="line2d_15">
      <path clip-path="url(#pa4a58e6f03)" d="M 658.762091 631.8288 
L 658.762091 85.1904 
" style="fill:none;stroke:#ffffff;stroke-linecap:round;"/>
     </g>
     <g id="line2d_16"/>
     <g id="text_8">
      <!-- 201009 -->
      <defs>
       <path d="M 10.984375 1.515625 
L 10.984375 10.5 
Q 14.703125 8.734375 18.5 7.8125 
Q 22.3125 6.890625 25.984375 6.890625 
Q 35.75 6.890625 40.890625 13.453125 
Q 46.046875 20.015625 46.78125 33.40625 
Q 43.953125 29.203125 39.59375 26.953125 
Q 35.25 24.703125 29.984375 24.703125 
Q 19.046875 24.703125 12.671875 31.3125 
Q 6.296875 37.9375 6.296875 49.421875 
Q 6.296875 60.640625 12.9375 67.421875 
Q 19.578125 74.21875 30.609375 74.21875 
Q 43.265625 74.21875 49.921875 64.515625 
Q 56.59375 54.828125 56.59375 36.375 
Q 56.59375 19.140625 48.40625 8.859375 
Q 40.234375 -1.421875 26.421875 -1.421875 
Q 22.703125 -1.421875 18.890625 -0.6875 
Q 15.09375 0.046875 10.984375 1.515625 
z
M 30.609375 32.421875 
Q 37.25 32.421875 41.125 36.953125 
Q 45.015625 41.5 45.015625 49.421875 
Q 45.015625 57.28125 41.125 61.84375 
Q 37.25 66.40625 30.609375 66.40625 
Q 23.96875 66.40625 20.09375 61.84375 
Q 16.21875 57.28125 16.21875 49.421875 
Q 16.21875 41.5 20.09375 36.953125 
Q 23.96875 32.421875 30.609375 32.421875 
z
" id="DejaVuSans-39"/>
      </defs>
      <g style="fill:#262626;" transform="translate(661.521466 677.0038)rotate(-90)scale(0.1 -0.1)">
       <use xlink:href="#DejaVuSans-32"/>
       <use x="63.623047" xlink:href="#DejaVuSans-30"/>
       <use x="127.246094" xlink:href="#DejaVuSans-31"/>
       <use x="190.869141" xlink:href="#DejaVuSans-30"/>
       <use x="254.492188" xlink:href="#DejaVuSans-30"/>
       <use x="318.115234" xlink:href="#DejaVuSans-39"/>
      </g>
     </g>
    </g>
    <g id="xtick_9">
     <g id="line2d_17">
      <path clip-path="url(#pa4a58e6f03)" d="M 722.035909 631.8288 
L 722.035909 85.1904 
" style="fill:none;stroke:#ffffff;stroke-linecap:round;"/>
     </g>
     <g id="line2d_18"/>
     <g id="text_9">
      <!-- 201010 -->
      <g style="fill:#262626;" transform="translate(724.795284 677.0038)rotate(-90)scale(0.1 -0.1)">
       <use xlink:href="#DejaVuSans-32"/>
       <use x="63.623047" xlink:href="#DejaVuSans-30"/>
       <use x="127.246094" xlink:href="#DejaVuSans-31"/>
       <use x="190.869141" xlink:href="#DejaVuSans-30"/>
       <use x="254.492188" xlink:href="#DejaVuSans-31"/>
       <use x="318.115234" xlink:href="#DejaVuSans-30"/>
      </g>
     </g>
    </g>
    <g id="xtick_10">
     <g id="line2d_19">
      <path clip-path="url(#pa4a58e6f03)" d="M 785.309727 631.8288 
L 785.309727 85.1904 
" style="fill:none;stroke:#ffffff;stroke-linecap:round;"/>
     </g>
     <g id="line2d_20"/>
     <g id="text_10">
      <!-- 201011 -->
      <g style="fill:#262626;" transform="translate(788.069102 677.0038)rotate(-90)scale(0.1 -0.1)">
       <use xlink:href="#DejaVuSans-32"/>
       <use x="63.623047" xlink:href="#DejaVuSans-30"/>
       <use x="127.246094" xlink:href="#DejaVuSans-31"/>
       <use x="190.869141" xlink:href="#DejaVuSans-30"/>
       <use x="254.492188" xlink:href="#DejaVuSans-31"/>
       <use x="318.115234" xlink:href="#DejaVuSans-31"/>
      </g>
     </g>
    </g>
    <g id="xtick_11">
     <g id="line2d_21">
      <path clip-path="url(#pa4a58e6f03)" d="M 848.583545 631.8288 
L 848.583545 85.1904 
" style="fill:none;stroke:#ffffff;stroke-linecap:round;"/>
     </g>
     <g id="line2d_22"/>
     <g id="text_11">
      <!-- 201012 -->
      <g style="fill:#262626;" transform="translate(851.34292 677.0038)rotate(-90)scale(0.1 -0.1)">
       <use xlink:href="#DejaVuSans-32"/>
       <use x="63.623047" xlink:href="#DejaVuSans-30"/>
       <use x="127.246094" xlink:href="#DejaVuSans-31"/>
       <use x="190.869141" xlink:href="#DejaVuSans-30"/>
       <use x="254.492188" xlink:href="#DejaVuSans-31"/>
       <use x="318.115234" xlink:href="#DejaVuSans-32"/>
      </g>
     </g>
    </g>
    <g id="xtick_12">
     <g id="line2d_23">
      <path clip-path="url(#pa4a58e6f03)" d="M 911.857364 631.8288 
L 911.857364 85.1904 
" style="fill:none;stroke:#ffffff;stroke-linecap:round;"/>
     </g>
     <g id="line2d_24"/>
     <g id="text_12">
      <!-- 201101 -->
      <g style="fill:#262626;" transform="translate(914.616739 677.0038)rotate(-90)scale(0.1 -0.1)">
       <use xlink:href="#DejaVuSans-32"/>
       <use x="63.623047" xlink:href="#DejaVuSans-30"/>
       <use x="127.246094" xlink:href="#DejaVuSans-31"/>
       <use x="190.869141" xlink:href="#DejaVuSans-31"/>
       <use x="254.492188" xlink:href="#DejaVuSans-30"/>
       <use x="318.115234" xlink:href="#DejaVuSans-31"/>
      </g>
     </g>
    </g>
    <g id="xtick_13">
     <g id="line2d_25">
      <path clip-path="url(#pa4a58e6f03)" d="M 975.131182 631.8288 
L 975.131182 85.1904 
" style="fill:none;stroke:#ffffff;stroke-linecap:round;"/>
     </g>
     <g id="line2d_26"/>
     <g id="text_13">
      <!-- 201102 -->
      <g style="fill:#262626;" transform="translate(977.890557 677.0038)rotate(-90)scale(0.1 -0.1)">
       <use xlink:href="#DejaVuSans-32"/>
       <use x="63.623047" xlink:href="#DejaVuSans-30"/>
       <use x="127.246094" xlink:href="#DejaVuSans-31"/>
       <use x="190.869141" xlink:href="#DejaVuSans-31"/>
       <use x="254.492188" xlink:href="#DejaVuSans-30"/>
       <use x="318.115234" xlink:href="#DejaVuSans-32"/>
      </g>
     </g>
    </g>
    <g id="xtick_14">
     <g id="line2d_27">
      <path clip-path="url(#pa4a58e6f03)" d="M 1038.405 631.8288 
L 1038.405 85.1904 
" style="fill:none;stroke:#ffffff;stroke-linecap:round;"/>
     </g>
     <g id="line2d_28"/>
     <g id="text_14">
      <!-- 201103 -->
      <g style="fill:#262626;" transform="translate(1041.164375 677.0038)rotate(-90)scale(0.1 -0.1)">
       <use xlink:href="#DejaVuSans-32"/>
       <use x="63.623047" xlink:href="#DejaVuSans-30"/>
       <use x="127.246094" xlink:href="#DejaVuSans-31"/>
       <use x="190.869141" xlink:href="#DejaVuSans-31"/>
       <use x="254.492188" xlink:href="#DejaVuSans-30"/>
       <use x="318.115234" xlink:href="#DejaVuSans-33"/>
      </g>
     </g>
    </g>
    <g id="xtick_15">
     <g id="line2d_29">
      <path clip-path="url(#pa4a58e6f03)" d="M 1101.678818 631.8288 
L 1101.678818 85.1904 
" style="fill:none;stroke:#ffffff;stroke-linecap:round;"/>
     </g>
     <g id="line2d_30"/>
     <g id="text_15">
      <!-- 201104 -->
      <g style="fill:#262626;" transform="translate(1104.438193 677.0038)rotate(-90)scale(0.1 -0.1)">
       <use xlink:href="#DejaVuSans-32"/>
       <use x="63.623047" xlink:href="#DejaVuSans-30"/>
       <use x="127.246094" xlink:href="#DejaVuSans-31"/>
       <use x="190.869141" xlink:href="#DejaVuSans-31"/>
       <use x="254.492188" xlink:href="#DejaVuSans-30"/>
       <use x="318.115234" xlink:href="#DejaVuSans-34"/>
      </g>
     </g>
    </g>
    <g id="xtick_16">
     <g id="line2d_31">
      <path clip-path="url(#pa4a58e6f03)" d="M 1164.952636 631.8288 
L 1164.952636 85.1904 
" style="fill:none;stroke:#ffffff;stroke-linecap:round;"/>
     </g>
     <g id="line2d_32"/>
     <g id="text_16">
      <!-- 201105 -->
      <g style="fill:#262626;" transform="translate(1167.712011 677.0038)rotate(-90)scale(0.1 -0.1)">
       <use xlink:href="#DejaVuSans-32"/>
       <use x="63.623047" xlink:href="#DejaVuSans-30"/>
       <use x="127.246094" xlink:href="#DejaVuSans-31"/>
       <use x="190.869141" xlink:href="#DejaVuSans-31"/>
       <use x="254.492188" xlink:href="#DejaVuSans-30"/>
       <use x="318.115234" xlink:href="#DejaVuSans-35"/>
      </g>
     </g>
    </g>
   </g>
   <g id="matplotlib.axis_2">
    <g id="ytick_1">
     <g id="line2d_33">
      <path clip-path="url(#pa4a58e6f03)" d="M 168.39 614.643241 
L 1212.408 614.643241 
" style="fill:none;stroke:#ffffff;stroke-linecap:round;"/>
     </g>
     <g id="line2d_34"/>
     <g id="text_17">
      <!-- 35000 -->
      <g style="fill:#262626;" transform="translate(129.5775 618.44246)scale(0.1 -0.1)">
       <use xlink:href="#DejaVuSans-33"/>
       <use x="63.623047" xlink:href="#DejaVuSans-35"/>
       <use x="127.246094" xlink:href="#DejaVuSans-30"/>
       <use x="190.869141" xlink:href="#DejaVuSans-30"/>
       <use x="254.492188" xlink:href="#DejaVuSans-30"/>
      </g>
     </g>
    </g>
    <g id="ytick_2">
     <g id="line2d_35">
      <path clip-path="url(#pa4a58e6f03)" d="M 168.39 528.942555 
L 1212.408 528.942555 
" style="fill:none;stroke:#ffffff;stroke-linecap:round;"/>
     </g>
     <g id="line2d_36"/>
     <g id="text_18">
      <!-- 40000 -->
      <g style="fill:#262626;" transform="translate(129.5775 532.741774)scale(0.1 -0.1)">
       <use xlink:href="#DejaVuSans-34"/>
       <use x="63.623047" xlink:href="#DejaVuSans-30"/>
       <use x="127.246094" xlink:href="#DejaVuSans-30"/>
       <use x="190.869141" xlink:href="#DejaVuSans-30"/>
       <use x="254.492188" xlink:href="#DejaVuSans-30"/>
      </g>
     </g>
    </g>
    <g id="ytick_3">
     <g id="line2d_37">
      <path clip-path="url(#pa4a58e6f03)" d="M 168.39 443.241869 
L 1212.408 443.241869 
" style="fill:none;stroke:#ffffff;stroke-linecap:round;"/>
     </g>
     <g id="line2d_38"/>
     <g id="text_19">
      <!-- 45000 -->
      <g style="fill:#262626;" transform="translate(129.5775 447.041087)scale(0.1 -0.1)">
       <use xlink:href="#DejaVuSans-34"/>
       <use x="63.623047" xlink:href="#DejaVuSans-35"/>
       <use x="127.246094" xlink:href="#DejaVuSans-30"/>
       <use x="190.869141" xlink:href="#DejaVuSans-30"/>
       <use x="254.492188" xlink:href="#DejaVuSans-30"/>
      </g>
     </g>
    </g>
    <g id="ytick_4">
     <g id="line2d_39">
      <path clip-path="url(#pa4a58e6f03)" d="M 168.39 357.541182 
L 1212.408 357.541182 
" style="fill:none;stroke:#ffffff;stroke-linecap:round;"/>
     </g>
     <g id="line2d_40"/>
     <g id="text_20">
      <!-- 50000 -->
      <g style="fill:#262626;" transform="translate(129.5775 361.340401)scale(0.1 -0.1)">
       <use xlink:href="#DejaVuSans-35"/>
       <use x="63.623047" xlink:href="#DejaVuSans-30"/>
       <use x="127.246094" xlink:href="#DejaVuSans-30"/>
       <use x="190.869141" xlink:href="#DejaVuSans-30"/>
       <use x="254.492188" xlink:href="#DejaVuSans-30"/>
      </g>
     </g>
    </g>
    <g id="ytick_5">
     <g id="line2d_41">
      <path clip-path="url(#pa4a58e6f03)" d="M 168.39 271.840496 
L 1212.408 271.840496 
" style="fill:none;stroke:#ffffff;stroke-linecap:round;"/>
     </g>
     <g id="line2d_42"/>
     <g id="text_21">
      <!-- 55000 -->
      <g style="fill:#262626;" transform="translate(129.5775 275.639715)scale(0.1 -0.1)">
       <use xlink:href="#DejaVuSans-35"/>
       <use x="63.623047" xlink:href="#DejaVuSans-35"/>
       <use x="127.246094" xlink:href="#DejaVuSans-30"/>
       <use x="190.869141" xlink:href="#DejaVuSans-30"/>
       <use x="254.492188" xlink:href="#DejaVuSans-30"/>
      </g>
     </g>
    </g>
    <g id="ytick_6">
     <g id="line2d_43">
      <path clip-path="url(#pa4a58e6f03)" d="M 168.39 186.139809 
L 1212.408 186.139809 
" style="fill:none;stroke:#ffffff;stroke-linecap:round;"/>
     </g>
     <g id="line2d_44"/>
     <g id="text_22">
      <!-- 60000 -->
      <g style="fill:#262626;" transform="translate(129.5775 189.939028)scale(0.1 -0.1)">
       <use xlink:href="#DejaVuSans-36"/>
       <use x="63.623047" xlink:href="#DejaVuSans-30"/>
       <use x="127.246094" xlink:href="#DejaVuSans-30"/>
       <use x="190.869141" xlink:href="#DejaVuSans-30"/>
       <use x="254.492188" xlink:href="#DejaVuSans-30"/>
      </g>
     </g>
    </g>
    <g id="ytick_7">
     <g id="line2d_45">
      <path clip-path="url(#pa4a58e6f03)" d="M 168.39 100.439123 
L 1212.408 100.439123 
" style="fill:none;stroke:#ffffff;stroke-linecap:round;"/>
     </g>
     <g id="line2d_46"/>
     <g id="text_23">
      <!-- 65000 -->
      <g style="fill:#262626;" transform="translate(129.5775 104.238342)scale(0.1 -0.1)">
       <use xlink:href="#DejaVuSans-36"/>
       <use x="63.623047" xlink:href="#DejaVuSans-35"/>
       <use x="127.246094" xlink:href="#DejaVuSans-30"/>
       <use x="190.869141" xlink:href="#DejaVuSans-30"/>
       <use x="254.492188" xlink:href="#DejaVuSans-30"/>
      </g>
     </g>
    </g>
    <g id="text_24">
     <!-- Real Sales -->
     <defs>
      <path d="M 44.390625 34.1875 
Q 47.5625 33.109375 50.5625 29.59375 
Q 53.5625 26.078125 56.59375 19.921875 
L 66.609375 0 
L 56 0 
L 46.6875 18.703125 
Q 43.0625 26.03125 39.671875 28.421875 
Q 36.28125 30.8125 30.421875 30.8125 
L 19.671875 30.8125 
L 19.671875 0 
L 9.8125 0 
L 9.8125 72.90625 
L 32.078125 72.90625 
Q 44.578125 72.90625 50.734375 67.671875 
Q 56.890625 62.453125 56.890625 51.90625 
Q 56.890625 45.015625 53.6875 40.46875 
Q 50.484375 35.9375 44.390625 34.1875 
z
M 19.671875 64.796875 
L 19.671875 38.921875 
L 32.078125 38.921875 
Q 39.203125 38.921875 42.84375 42.21875 
Q 46.484375 45.515625 46.484375 51.90625 
Q 46.484375 58.296875 42.84375 61.546875 
Q 39.203125 64.796875 32.078125 64.796875 
z
" id="DejaVuSans-52"/>
      <path d="M 56.203125 29.59375 
L 56.203125 25.203125 
L 14.890625 25.203125 
Q 15.484375 15.921875 20.484375 11.0625 
Q 25.484375 6.203125 34.421875 6.203125 
Q 39.59375 6.203125 44.453125 7.46875 
Q 49.3125 8.734375 54.109375 11.28125 
L 54.109375 2.78125 
Q 49.265625 0.734375 44.1875 -0.34375 
Q 39.109375 -1.421875 33.890625 -1.421875 
Q 20.796875 -1.421875 13.15625 6.1875 
Q 5.515625 13.8125 5.515625 26.8125 
Q 5.515625 40.234375 12.765625 48.109375 
Q 20.015625 56 32.328125 56 
Q 43.359375 56 49.78125 48.890625 
Q 56.203125 41.796875 56.203125 29.59375 
z
M 47.21875 32.234375 
Q 47.125 39.59375 43.09375 43.984375 
Q 39.0625 48.390625 32.421875 48.390625 
Q 24.90625 48.390625 20.390625 44.140625 
Q 15.875 39.890625 15.1875 32.171875 
z
" id="DejaVuSans-65"/>
      <path d="M 34.28125 27.484375 
Q 23.390625 27.484375 19.1875 25 
Q 14.984375 22.515625 14.984375 16.5 
Q 14.984375 11.71875 18.140625 8.90625 
Q 21.296875 6.109375 26.703125 6.109375 
Q 34.1875 6.109375 38.703125 11.40625 
Q 43.21875 16.703125 43.21875 25.484375 
L 43.21875 27.484375 
z
M 52.203125 31.203125 
L 52.203125 0 
L 43.21875 0 
L 43.21875 8.296875 
Q 40.140625 3.328125 35.546875 0.953125 
Q 30.953125 -1.421875 24.3125 -1.421875 
Q 15.921875 -1.421875 10.953125 3.296875 
Q 6 8.015625 6 15.921875 
Q 6 25.140625 12.171875 29.828125 
Q 18.359375 34.515625 30.609375 34.515625 
L 43.21875 34.515625 
L 43.21875 35.40625 
Q 43.21875 41.609375 39.140625 45 
Q 35.0625 48.390625 27.6875 48.390625 
Q 23 48.390625 18.546875 47.265625 
Q 14.109375 46.140625 10.015625 43.890625 
L 10.015625 52.203125 
Q 14.9375 54.109375 19.578125 55.046875 
Q 24.21875 56 28.609375 56 
Q 40.484375 56 46.34375 49.84375 
Q 52.203125 43.703125 52.203125 31.203125 
z
" id="DejaVuSans-61"/>
      <path d="M 9.421875 75.984375 
L 18.40625 75.984375 
L 18.40625 0 
L 9.421875 0 
z
" id="DejaVuSans-6c"/>
      <path id="DejaVuSans-20"/>
      <path d="M 53.515625 70.515625 
L 53.515625 60.890625 
Q 47.90625 63.578125 42.921875 64.890625 
Q 37.9375 66.21875 33.296875 66.21875 
Q 25.25 66.21875 20.875 63.09375 
Q 16.5 59.96875 16.5 54.203125 
Q 16.5 49.359375 19.40625 46.890625 
Q 22.3125 44.4375 30.421875 42.921875 
L 36.375 41.703125 
Q 47.40625 39.59375 52.65625 34.296875 
Q 57.90625 29 57.90625 20.125 
Q 57.90625 9.515625 50.796875 4.046875 
Q 43.703125 -1.421875 29.984375 -1.421875 
Q 24.8125 -1.421875 18.96875 -0.25 
Q 13.140625 0.921875 6.890625 3.21875 
L 6.890625 13.375 
Q 12.890625 10.015625 18.65625 8.296875 
Q 24.421875 6.59375 29.984375 6.59375 
Q 38.421875 6.59375 43.015625 9.90625 
Q 47.609375 13.234375 47.609375 19.390625 
Q 47.609375 24.75 44.3125 27.78125 
Q 41.015625 30.8125 33.5 32.328125 
L 27.484375 33.5 
Q 16.453125 35.6875 11.515625 40.375 
Q 6.59375 45.0625 6.59375 53.421875 
Q 6.59375 63.09375 13.40625 68.65625 
Q 20.21875 74.21875 32.171875 74.21875 
Q 37.3125 74.21875 42.625 73.28125 
Q 47.953125 72.359375 53.515625 70.515625 
z
" id="DejaVuSans-53"/>
      <path d="M 44.28125 53.078125 
L 44.28125 44.578125 
Q 40.484375 46.53125 36.375 47.5 
Q 32.28125 48.484375 27.875 48.484375 
Q 21.1875 48.484375 17.84375 46.4375 
Q 14.5 44.390625 14.5 40.28125 
Q 14.5 37.15625 16.890625 35.375 
Q 19.28125 33.59375 26.515625 31.984375 
L 29.59375 31.296875 
Q 39.15625 29.25 43.1875 25.515625 
Q 47.21875 21.78125 47.21875 15.09375 
Q 47.21875 7.46875 41.1875 3.015625 
Q 35.15625 -1.421875 24.609375 -1.421875 
Q 20.21875 -1.421875 15.453125 -0.5625 
Q 10.6875 0.296875 5.421875 2 
L 5.421875 11.28125 
Q 10.40625 8.6875 15.234375 7.390625 
Q 20.0625 6.109375 24.8125 6.109375 
Q 31.15625 6.109375 34.5625 8.28125 
Q 37.984375 10.453125 37.984375 14.40625 
Q 37.984375 18.0625 35.515625 20.015625 
Q 33.0625 21.96875 24.703125 23.78125 
L 21.578125 24.515625 
Q 13.234375 26.265625 9.515625 29.90625 
Q 5.8125 33.546875 5.8125 39.890625 
Q 5.8125 47.609375 11.28125 51.796875 
Q 16.75 56 26.8125 56 
Q 31.78125 56 36.171875 55.265625 
Q 40.578125 54.546875 44.28125 53.078125 
z
" id="DejaVuSans-73"/>
     </defs>
     <g style="fill:#262626;" transform="translate(123.289844 386.997881)rotate(-90)scale(0.11 -0.11)">
      <use xlink:href="#DejaVuSans-52"/>
      <use x="69.419922" xlink:href="#DejaVuSans-65"/>
      <use x="130.943359" xlink:href="#DejaVuSans-61"/>
      <use x="192.222656" xlink:href="#DejaVuSans-6c"/>
      <use x="220.005859" xlink:href="#DejaVuSans-20"/>
      <use x="251.792969" xlink:href="#DejaVuSans-53"/>
      <use x="315.269531" xlink:href="#DejaVuSans-61"/>
      <use x="376.548828" xlink:href="#DejaVuSans-6c"/>
      <use x="404.332031" xlink:href="#DejaVuSans-65"/>
      <use x="465.855469" xlink:href="#DejaVuSans-73"/>
     </g>
    </g>
   </g>
   <g id="line2d_47">
    <path clip-path="url(#pa4a58e6f03)" d="M 215.845364 590.938432 
L 279.119182 540.255046 
L 342.393 587.081901 
L 405.666818 572.187121 
L 468.940636 578.768934 
L 532.214455 547.0254 
L 595.488273 527.09142 
L 658.762091 516.584516 
L 722.035909 431.775117 
L 785.309727 415.474846 
L 848.583545 133.965232 
L 911.857364 421.525315 
L 975.131182 446.926998 
L 1038.405 441.973498 
L 1101.678818 462.061739 
L 1164.952636 447.544043 
" style="fill:none;stroke:#4c72b0;stroke-linecap:round;stroke-width:1.75;"/>
   </g>
   <g id="line2d_48">
    <path clip-path="url(#pa4a58e6f03)" d="M 279.119182 541.112052 
L 342.393 586.94478 
L 405.666818 572.187121 
L 468.940636 578.751794 
L 532.214455 546.922559 
L 595.488273 539.672281 
L 658.762091 519.875422 
L 722.035909 489.143156 
L 785.309727 449.463738 
L 848.583545 123.286926 
L 911.857364 449.840821 
L 975.131182 455.222825 
L 1038.405 418.097287 
L 1101.678818 436.608635 
L 1164.952636 443.807493 
" style="fill:none;stroke:#55a868;stroke-linecap:round;stroke-width:1.75;"/>
   </g>
   <g id="line2d_49">
    <path clip-path="url(#pa4a58e6f03)" d="M 342.393 606.9816 
L 405.666818 572.187121 
L 468.940636 569.47898 
L 532.214455 547.213941 
L 595.488273 503.523731 
L 658.762091 502.838126 
L 722.035909 448.812413 
L 785.309727 403.545311 
L 848.583545 110.0376 
L 911.857364 435.751629 
L 975.131182 502.426763 
L 1038.405 485.492307 
L 1101.678818 518.829874 
L 1164.952636 431.980798 
" style="fill:none;stroke:#c44e52;stroke-linecap:round;stroke-width:1.75;"/>
   </g>
   <g id="line2d_50">
    <path clip-path="url(#pa4a58e6f03)" d="M 215.845364 581.597057 
L 279.119182 540.220765 
L 342.393 587.081901 
L 405.666818 572.169981 
L 468.940636 578.786074 
L 532.214455 547.00826 
L 595.488273 503.266629 
L 658.762091 516.584516 
L 722.035909 429.255517 
L 785.309727 415.526267 
L 848.583545 117.596401 
L 911.857364 435.751629 
L 975.131182 477.059359 
L 1038.405 417.514523 
L 1101.678818 513.242189 
L 1164.952636 448.195368 
" style="fill:none;stroke:#8172b2;stroke-linecap:round;stroke-width:1.75;"/>
   </g>
   <g id="patch_3">
    <path d="M 168.39 631.8288 
L 168.39 85.1904 
" style="fill:none;"/>
   </g>
   <g id="patch_4">
    <path d="M 1212.408 631.8288 
L 1212.408 85.1904 
" style="fill:none;"/>
   </g>
   <g id="patch_5">
    <path d="M 168.39 631.8288 
L 1212.408 631.8288 
" style="fill:none;"/>
   </g>
   <g id="patch_6">
    <path d="M 168.39 85.1904 
L 1212.408 85.1904 
" style="fill:none;"/>
   </g>
   <g id="text_25">
    <!-- Nationwide Real vs Predicted Sales -->
    <defs>
     <path d="M 9.8125 72.90625 
L 23.09375 72.90625 
L 55.421875 11.921875 
L 55.421875 72.90625 
L 64.984375 72.90625 
L 64.984375 0 
L 51.703125 0 
L 19.390625 60.984375 
L 19.390625 0 
L 9.8125 0 
z
" id="DejaVuSans-4e"/>
     <path d="M 18.3125 70.21875 
L 18.3125 54.6875 
L 36.8125 54.6875 
L 36.8125 47.703125 
L 18.3125 47.703125 
L 18.3125 18.015625 
Q 18.3125 11.328125 20.140625 9.421875 
Q 21.96875 7.515625 27.59375 7.515625 
L 36.8125 7.515625 
L 36.8125 0 
L 27.59375 0 
Q 17.1875 0 13.234375 3.875 
Q 9.28125 7.765625 9.28125 18.015625 
L 9.28125 47.703125 
L 2.6875 47.703125 
L 2.6875 54.6875 
L 9.28125 54.6875 
L 9.28125 70.21875 
z
" id="DejaVuSans-74"/>
     <path d="M 9.421875 54.6875 
L 18.40625 54.6875 
L 18.40625 0 
L 9.421875 0 
z
M 9.421875 75.984375 
L 18.40625 75.984375 
L 18.40625 64.59375 
L 9.421875 64.59375 
z
" id="DejaVuSans-69"/>
     <path d="M 30.609375 48.390625 
Q 23.390625 48.390625 19.1875 42.75 
Q 14.984375 37.109375 14.984375 27.296875 
Q 14.984375 17.484375 19.15625 11.84375 
Q 23.34375 6.203125 30.609375 6.203125 
Q 37.796875 6.203125 41.984375 11.859375 
Q 46.1875 17.53125 46.1875 27.296875 
Q 46.1875 37.015625 41.984375 42.703125 
Q 37.796875 48.390625 30.609375 48.390625 
z
M 30.609375 56 
Q 42.328125 56 49.015625 48.375 
Q 55.71875 40.765625 55.71875 27.296875 
Q 55.71875 13.875 49.015625 6.21875 
Q 42.328125 -1.421875 30.609375 -1.421875 
Q 18.84375 -1.421875 12.171875 6.21875 
Q 5.515625 13.875 5.515625 27.296875 
Q 5.515625 40.765625 12.171875 48.375 
Q 18.84375 56 30.609375 56 
z
" id="DejaVuSans-6f"/>
     <path d="M 54.890625 33.015625 
L 54.890625 0 
L 45.90625 0 
L 45.90625 32.71875 
Q 45.90625 40.484375 42.875 44.328125 
Q 39.84375 48.1875 33.796875 48.1875 
Q 26.515625 48.1875 22.3125 43.546875 
Q 18.109375 38.921875 18.109375 30.90625 
L 18.109375 0 
L 9.078125 0 
L 9.078125 54.6875 
L 18.109375 54.6875 
L 18.109375 46.1875 
Q 21.34375 51.125 25.703125 53.5625 
Q 30.078125 56 35.796875 56 
Q 45.21875 56 50.046875 50.171875 
Q 54.890625 44.34375 54.890625 33.015625 
z
" id="DejaVuSans-6e"/>
     <path d="M 4.203125 54.6875 
L 13.1875 54.6875 
L 24.421875 12.015625 
L 35.59375 54.6875 
L 46.1875 54.6875 
L 57.421875 12.015625 
L 68.609375 54.6875 
L 77.59375 54.6875 
L 63.28125 0 
L 52.6875 0 
L 40.921875 44.828125 
L 29.109375 0 
L 18.5 0 
z
" id="DejaVuSans-77"/>
     <path d="M 45.40625 46.390625 
L 45.40625 75.984375 
L 54.390625 75.984375 
L 54.390625 0 
L 45.40625 0 
L 45.40625 8.203125 
Q 42.578125 3.328125 38.25 0.953125 
Q 33.9375 -1.421875 27.875 -1.421875 
Q 17.96875 -1.421875 11.734375 6.484375 
Q 5.515625 14.40625 5.515625 27.296875 
Q 5.515625 40.1875 11.734375 48.09375 
Q 17.96875 56 27.875 56 
Q 33.9375 56 38.25 53.625 
Q 42.578125 51.265625 45.40625 46.390625 
z
M 14.796875 27.296875 
Q 14.796875 17.390625 18.875 11.75 
Q 22.953125 6.109375 30.078125 6.109375 
Q 37.203125 6.109375 41.296875 11.75 
Q 45.40625 17.390625 45.40625 27.296875 
Q 45.40625 37.203125 41.296875 42.84375 
Q 37.203125 48.484375 30.078125 48.484375 
Q 22.953125 48.484375 18.875 42.84375 
Q 14.796875 37.203125 14.796875 27.296875 
z
" id="DejaVuSans-64"/>
     <path d="M 2.984375 54.6875 
L 12.5 54.6875 
L 29.59375 8.796875 
L 46.6875 54.6875 
L 56.203125 54.6875 
L 35.6875 0 
L 23.484375 0 
z
" id="DejaVuSans-76"/>
     <path d="M 19.671875 64.796875 
L 19.671875 37.40625 
L 32.078125 37.40625 
Q 38.96875 37.40625 42.71875 40.96875 
Q 46.484375 44.53125 46.484375 51.125 
Q 46.484375 57.671875 42.71875 61.234375 
Q 38.96875 64.796875 32.078125 64.796875 
z
M 9.8125 72.90625 
L 32.078125 72.90625 
Q 44.34375 72.90625 50.609375 67.359375 
Q 56.890625 61.8125 56.890625 51.125 
Q 56.890625 40.328125 50.609375 34.8125 
Q 44.34375 29.296875 32.078125 29.296875 
L 19.671875 29.296875 
L 19.671875 0 
L 9.8125 0 
z
" id="DejaVuSans-50"/>
     <path d="M 41.109375 46.296875 
Q 39.59375 47.171875 37.8125 47.578125 
Q 36.03125 48 33.890625 48 
Q 26.265625 48 22.1875 43.046875 
Q 18.109375 38.09375 18.109375 28.8125 
L 18.109375 0 
L 9.078125 0 
L 9.078125 54.6875 
L 18.109375 54.6875 
L 18.109375 46.1875 
Q 20.953125 51.171875 25.484375 53.578125 
Q 30.03125 56 36.53125 56 
Q 37.453125 56 38.578125 55.875 
Q 39.703125 55.765625 41.0625 55.515625 
z
" id="DejaVuSans-72"/>
     <path d="M 48.78125 52.59375 
L 48.78125 44.1875 
Q 44.96875 46.296875 41.140625 47.34375 
Q 37.3125 48.390625 33.40625 48.390625 
Q 24.65625 48.390625 19.8125 42.84375 
Q 14.984375 37.3125 14.984375 27.296875 
Q 14.984375 17.28125 19.8125 11.734375 
Q 24.65625 6.203125 33.40625 6.203125 
Q 37.3125 6.203125 41.140625 7.25 
Q 44.96875 8.296875 48.78125 10.40625 
L 48.78125 2.09375 
Q 45.015625 0.34375 40.984375 -0.53125 
Q 36.96875 -1.421875 32.421875 -1.421875 
Q 20.0625 -1.421875 12.78125 6.34375 
Q 5.515625 14.109375 5.515625 27.296875 
Q 5.515625 40.671875 12.859375 48.328125 
Q 20.21875 56 33.015625 56 
Q 37.15625 56 41.109375 55.140625 
Q 45.0625 54.296875 48.78125 52.59375 
z
" id="DejaVuSans-63"/>
    </defs>
    <g style="fill:#262626;" transform="translate(584.788688 79.1904)scale(0.12 -0.12)">
     <use xlink:href="#DejaVuSans-4e"/>
     <use x="74.804688" xlink:href="#DejaVuSans-61"/>
     <use x="136.083984" xlink:href="#DejaVuSans-74"/>
     <use x="175.292969" xlink:href="#DejaVuSans-69"/>
     <use x="203.076172" xlink:href="#DejaVuSans-6f"/>
     <use x="264.257812" xlink:href="#DejaVuSans-6e"/>
     <use x="327.636719" xlink:href="#DejaVuSans-77"/>
     <use x="409.423828" xlink:href="#DejaVuSans-69"/>
     <use x="437.207031" xlink:href="#DejaVuSans-64"/>
     <use x="500.683594" xlink:href="#DejaVuSans-65"/>
     <use x="562.207031" xlink:href="#DejaVuSans-20"/>
     <use x="593.994141" xlink:href="#DejaVuSans-52"/>
     <use x="663.414062" xlink:href="#DejaVuSans-65"/>
     <use x="724.9375" xlink:href="#DejaVuSans-61"/>
     <use x="786.216797" xlink:href="#DejaVuSans-6c"/>
     <use x="814" xlink:href="#DejaVuSans-20"/>
     <use x="845.787109" xlink:href="#DejaVuSans-76"/>
     <use x="904.966797" xlink:href="#DejaVuSans-73"/>
     <use x="957.066406" xlink:href="#DejaVuSans-20"/>
     <use x="988.853516" xlink:href="#DejaVuSans-50"/>
     <use x="1049.140625" xlink:href="#DejaVuSans-72"/>
     <use x="1090.222656" xlink:href="#DejaVuSans-65"/>
     <use x="1151.746094" xlink:href="#DejaVuSans-64"/>
     <use x="1215.222656" xlink:href="#DejaVuSans-69"/>
     <use x="1243.005859" xlink:href="#DejaVuSans-63"/>
     <use x="1297.986328" xlink:href="#DejaVuSans-74"/>
     <use x="1337.195312" xlink:href="#DejaVuSans-65"/>
     <use x="1398.71875" xlink:href="#DejaVuSans-64"/>
     <use x="1462.195312" xlink:href="#DejaVuSans-20"/>
     <use x="1493.982422" xlink:href="#DejaVuSans-53"/>
     <use x="1557.458984" xlink:href="#DejaVuSans-61"/>
     <use x="1618.738281" xlink:href="#DejaVuSans-6c"/>
     <use x="1646.521484" xlink:href="#DejaVuSans-65"/>
     <use x="1708.044922" xlink:href="#DejaVuSans-73"/>
    </g>
   </g>
   <g id="legend_1">
    <g id="line2d_51">
     <path d="M 177.39 98.288837 
L 197.39 98.288837 
" style="fill:none;stroke:#4c72b0;stroke-linecap:round;stroke-width:1.75;"/>
    </g>
    <g id="line2d_52"/>
    <g id="text_26">
     <!-- ensemble-run-nationwide-20180814214839162428-GA-0-1.425.bin-P0 -->
     <defs>
      <path d="M 52 44.1875 
Q 55.375 50.25 60.0625 53.125 
Q 64.75 56 71.09375 56 
Q 79.640625 56 84.28125 50.015625 
Q 88.921875 44.046875 88.921875 33.015625 
L 88.921875 0 
L 79.890625 0 
L 79.890625 32.71875 
Q 79.890625 40.578125 77.09375 44.375 
Q 74.3125 48.1875 68.609375 48.1875 
Q 61.625 48.1875 57.5625 43.546875 
Q 53.515625 38.921875 53.515625 30.90625 
L 53.515625 0 
L 44.484375 0 
L 44.484375 32.71875 
Q 44.484375 40.625 41.703125 44.40625 
Q 38.921875 48.1875 33.109375 48.1875 
Q 26.21875 48.1875 22.15625 43.53125 
Q 18.109375 38.875 18.109375 30.90625 
L 18.109375 0 
L 9.078125 0 
L 9.078125 54.6875 
L 18.109375 54.6875 
L 18.109375 46.1875 
Q 21.1875 51.21875 25.484375 53.609375 
Q 29.78125 56 35.6875 56 
Q 41.65625 56 45.828125 52.96875 
Q 50 49.953125 52 44.1875 
z
" id="DejaVuSans-6d"/>
      <path d="M 48.6875 27.296875 
Q 48.6875 37.203125 44.609375 42.84375 
Q 40.53125 48.484375 33.40625 48.484375 
Q 26.265625 48.484375 22.1875 42.84375 
Q 18.109375 37.203125 18.109375 27.296875 
Q 18.109375 17.390625 22.1875 11.75 
Q 26.265625 6.109375 33.40625 6.109375 
Q 40.53125 6.109375 44.609375 11.75 
Q 48.6875 17.390625 48.6875 27.296875 
z
M 18.109375 46.390625 
Q 20.953125 51.265625 25.265625 53.625 
Q 29.59375 56 35.59375 56 
Q 45.5625 56 51.78125 48.09375 
Q 58.015625 40.1875 58.015625 27.296875 
Q 58.015625 14.40625 51.78125 6.484375 
Q 45.5625 -1.421875 35.59375 -1.421875 
Q 29.59375 -1.421875 25.265625 0.953125 
Q 20.953125 3.328125 18.109375 8.203125 
L 18.109375 0 
L 9.078125 0 
L 9.078125 75.984375 
L 18.109375 75.984375 
z
" id="DejaVuSans-62"/>
      <path d="M 4.890625 31.390625 
L 31.203125 31.390625 
L 31.203125 23.390625 
L 4.890625 23.390625 
z
" id="DejaVuSans-2d"/>
      <path d="M 8.5 21.578125 
L 8.5 54.6875 
L 17.484375 54.6875 
L 17.484375 21.921875 
Q 17.484375 14.15625 20.5 10.265625 
Q 23.53125 6.390625 29.59375 6.390625 
Q 36.859375 6.390625 41.078125 11.03125 
Q 45.3125 15.671875 45.3125 23.6875 
L 45.3125 54.6875 
L 54.296875 54.6875 
L 54.296875 0 
L 45.3125 0 
L 45.3125 8.40625 
Q 42.046875 3.421875 37.71875 1 
Q 33.40625 -1.421875 27.6875 -1.421875 
Q 18.265625 -1.421875 13.375 4.4375 
Q 8.5 10.296875 8.5 21.578125 
z
M 31.109375 56 
z
" id="DejaVuSans-75"/>
      <path d="M 59.515625 10.40625 
L 59.515625 29.984375 
L 43.40625 29.984375 
L 43.40625 38.09375 
L 69.28125 38.09375 
L 69.28125 6.78125 
Q 63.578125 2.734375 56.6875 0.65625 
Q 49.8125 -1.421875 42 -1.421875 
Q 24.90625 -1.421875 15.25 8.5625 
Q 5.609375 18.5625 5.609375 36.375 
Q 5.609375 54.25 15.25 64.234375 
Q 24.90625 74.21875 42 74.21875 
Q 49.125 74.21875 55.546875 72.453125 
Q 61.96875 70.703125 67.390625 67.28125 
L 67.390625 56.78125 
Q 61.921875 61.421875 55.765625 63.765625 
Q 49.609375 66.109375 42.828125 66.109375 
Q 29.4375 66.109375 22.71875 58.640625 
Q 16.015625 51.171875 16.015625 36.375 
Q 16.015625 21.625 22.71875 14.15625 
Q 29.4375 6.6875 42.828125 6.6875 
Q 48.046875 6.6875 52.140625 7.59375 
Q 56.25 8.5 59.515625 10.40625 
z
" id="DejaVuSans-47"/>
      <path d="M 34.1875 63.1875 
L 20.796875 26.90625 
L 47.609375 26.90625 
z
M 28.609375 72.90625 
L 39.796875 72.90625 
L 67.578125 0 
L 57.328125 0 
L 50.6875 18.703125 
L 17.828125 18.703125 
L 11.1875 0 
L 0.78125 0 
z
" id="DejaVuSans-41"/>
      <path d="M 10.6875 12.40625 
L 21 12.40625 
L 21 0 
L 10.6875 0 
z
" id="DejaVuSans-2e"/>
     </defs>
     <g style="fill:#262626;" transform="translate(205.39 101.788837)scale(0.1 -0.1)">
      <use xlink:href="#DejaVuSans-65"/>
      <use x="61.523438" xlink:href="#DejaVuSans-6e"/>
      <use x="124.902344" xlink:href="#DejaVuSans-73"/>
      <use x="177.001953" xlink:href="#DejaVuSans-65"/>
      <use x="238.525391" xlink:href="#DejaVuSans-6d"/>
      <use x="335.9375" xlink:href="#DejaVuSans-62"/>
      <use x="399.414062" xlink:href="#DejaVuSans-6c"/>
      <use x="427.197266" xlink:href="#DejaVuSans-65"/>
      <use x="488.720703" xlink:href="#DejaVuSans-2d"/>
      <use x="524.804688" xlink:href="#DejaVuSans-72"/>
      <use x="565.917969" xlink:href="#DejaVuSans-75"/>
      <use x="629.296875" xlink:href="#DejaVuSans-6e"/>
      <use x="692.675781" xlink:href="#DejaVuSans-2d"/>
      <use x="728.759766" xlink:href="#DejaVuSans-6e"/>
      <use x="792.138672" xlink:href="#DejaVuSans-61"/>
      <use x="853.417969" xlink:href="#DejaVuSans-74"/>
      <use x="892.626953" xlink:href="#DejaVuSans-69"/>
      <use x="920.410156" xlink:href="#DejaVuSans-6f"/>
      <use x="981.591797" xlink:href="#DejaVuSans-6e"/>
      <use x="1044.970703" xlink:href="#DejaVuSans-77"/>
      <use x="1126.757812" xlink:href="#DejaVuSans-69"/>
      <use x="1154.541016" xlink:href="#DejaVuSans-64"/>
      <use x="1218.017578" xlink:href="#DejaVuSans-65"/>
      <use x="1279.541016" xlink:href="#DejaVuSans-2d"/>
      <use x="1315.625" xlink:href="#DejaVuSans-32"/>
      <use x="1379.248047" xlink:href="#DejaVuSans-30"/>
      <use x="1442.871094" xlink:href="#DejaVuSans-31"/>
      <use x="1506.494141" xlink:href="#DejaVuSans-38"/>
      <use x="1570.117188" xlink:href="#DejaVuSans-30"/>
      <use x="1633.740234" xlink:href="#DejaVuSans-38"/>
      <use x="1697.363281" xlink:href="#DejaVuSans-31"/>
      <use x="1760.986328" xlink:href="#DejaVuSans-34"/>
      <use x="1824.609375" xlink:href="#DejaVuSans-32"/>
      <use x="1888.232422" xlink:href="#DejaVuSans-31"/>
      <use x="1951.855469" xlink:href="#DejaVuSans-34"/>
      <use x="2015.478516" xlink:href="#DejaVuSans-38"/>
      <use x="2079.101562" xlink:href="#DejaVuSans-33"/>
      <use x="2142.724609" xlink:href="#DejaVuSans-39"/>
      <use x="2206.347656" xlink:href="#DejaVuSans-31"/>
      <use x="2269.970703" xlink:href="#DejaVuSans-36"/>
      <use x="2333.59375" xlink:href="#DejaVuSans-32"/>
      <use x="2397.216797" xlink:href="#DejaVuSans-34"/>
      <use x="2460.839844" xlink:href="#DejaVuSans-32"/>
      <use x="2524.462891" xlink:href="#DejaVuSans-38"/>
      <use x="2588.085938" xlink:href="#DejaVuSans-2d"/>
      <use x="2624.216797" xlink:href="#DejaVuSans-47"/>
      <use x="2701.707031" xlink:href="#DejaVuSans-41"/>
      <use x="2770.083984" xlink:href="#DejaVuSans-2d"/>
      <use x="2806.167969" xlink:href="#DejaVuSans-30"/>
      <use x="2869.791016" xlink:href="#DejaVuSans-2d"/>
      <use x="2905.875" xlink:href="#DejaVuSans-31"/>
      <use x="2969.498047" xlink:href="#DejaVuSans-2e"/>
      <use x="3001.285156" xlink:href="#DejaVuSans-34"/>
      <use x="3064.908203" xlink:href="#DejaVuSans-32"/>
      <use x="3128.53125" xlink:href="#DejaVuSans-35"/>
      <use x="3192.154297" xlink:href="#DejaVuSans-2e"/>
      <use x="3223.941406" xlink:href="#DejaVuSans-62"/>
      <use x="3287.417969" xlink:href="#DejaVuSans-69"/>
      <use x="3315.201172" xlink:href="#DejaVuSans-6e"/>
      <use x="3378.580078" xlink:href="#DejaVuSans-2d"/>
      <use x="3414.664062" xlink:href="#DejaVuSans-50"/>
      <use x="3474.966797" xlink:href="#DejaVuSans-30"/>
     </g>
    </g>
    <g id="line2d_53">
     <path d="M 177.39 112.966962 
L 197.39 112.966962 
" style="fill:none;stroke:#55a868;stroke-linecap:round;stroke-width:1.75;"/>
    </g>
    <g id="line2d_54"/>
    <g id="text_27">
     <!-- ensemble-run-nationwide_2n-20180821215754041110-GA-1-2.296.bin-P0 -->
     <defs>
      <path d="M 50.984375 -16.609375 
L 50.984375 -23.578125 
L -0.984375 -23.578125 
L -0.984375 -16.609375 
z
" id="DejaVuSans-5f"/>
     </defs>
     <g style="fill:#262626;" transform="translate(205.39 116.466962)scale(0.1 -0.1)">
      <use xlink:href="#DejaVuSans-65"/>
      <use x="61.523438" xlink:href="#DejaVuSans-6e"/>
      <use x="124.902344" xlink:href="#DejaVuSans-73"/>
      <use x="177.001953" xlink:href="#DejaVuSans-65"/>
      <use x="238.525391" xlink:href="#DejaVuSans-6d"/>
      <use x="335.9375" xlink:href="#DejaVuSans-62"/>
      <use x="399.414062" xlink:href="#DejaVuSans-6c"/>
      <use x="427.197266" xlink:href="#DejaVuSans-65"/>
      <use x="488.720703" xlink:href="#DejaVuSans-2d"/>
      <use x="524.804688" xlink:href="#DejaVuSans-72"/>
      <use x="565.917969" xlink:href="#DejaVuSans-75"/>
      <use x="629.296875" xlink:href="#DejaVuSans-6e"/>
      <use x="692.675781" xlink:href="#DejaVuSans-2d"/>
      <use x="728.759766" xlink:href="#DejaVuSans-6e"/>
      <use x="792.138672" xlink:href="#DejaVuSans-61"/>
      <use x="853.417969" xlink:href="#DejaVuSans-74"/>
      <use x="892.626953" xlink:href="#DejaVuSans-69"/>
      <use x="920.410156" xlink:href="#DejaVuSans-6f"/>
      <use x="981.591797" xlink:href="#DejaVuSans-6e"/>
      <use x="1044.970703" xlink:href="#DejaVuSans-77"/>
      <use x="1126.757812" xlink:href="#DejaVuSans-69"/>
      <use x="1154.541016" xlink:href="#DejaVuSans-64"/>
      <use x="1218.017578" xlink:href="#DejaVuSans-65"/>
      <use x="1279.541016" xlink:href="#DejaVuSans-5f"/>
      <use x="1329.541016" xlink:href="#DejaVuSans-32"/>
      <use x="1393.164062" xlink:href="#DejaVuSans-6e"/>
      <use x="1456.542969" xlink:href="#DejaVuSans-2d"/>
      <use x="1492.626953" xlink:href="#DejaVuSans-32"/>
      <use x="1556.25" xlink:href="#DejaVuSans-30"/>
      <use x="1619.873047" xlink:href="#DejaVuSans-31"/>
      <use x="1683.496094" xlink:href="#DejaVuSans-38"/>
      <use x="1747.119141" xlink:href="#DejaVuSans-30"/>
      <use x="1810.742188" xlink:href="#DejaVuSans-38"/>
      <use x="1874.365234" xlink:href="#DejaVuSans-32"/>
      <use x="1937.988281" xlink:href="#DejaVuSans-31"/>
      <use x="2001.611328" xlink:href="#DejaVuSans-32"/>
      <use x="2065.234375" xlink:href="#DejaVuSans-31"/>
      <use x="2128.857422" xlink:href="#DejaVuSans-35"/>
      <use x="2192.480469" xlink:href="#DejaVuSans-37"/>
      <use x="2256.103516" xlink:href="#DejaVuSans-35"/>
      <use x="2319.726562" xlink:href="#DejaVuSans-34"/>
      <use x="2383.349609" xlink:href="#DejaVuSans-30"/>
      <use x="2446.972656" xlink:href="#DejaVuSans-34"/>
      <use x="2510.595703" xlink:href="#DejaVuSans-31"/>
      <use x="2574.21875" xlink:href="#DejaVuSans-31"/>
      <use x="2637.841797" xlink:href="#DejaVuSans-31"/>
      <use x="2701.464844" xlink:href="#DejaVuSans-30"/>
      <use x="2765.087891" xlink:href="#DejaVuSans-2d"/>
      <use x="2801.21875" xlink:href="#DejaVuSans-47"/>
      <use x="2878.708984" xlink:href="#DejaVuSans-41"/>
      <use x="2947.085938" xlink:href="#DejaVuSans-2d"/>
      <use x="2983.169922" xlink:href="#DejaVuSans-31"/>
      <use x="3046.792969" xlink:href="#DejaVuSans-2d"/>
      <use x="3082.876953" xlink:href="#DejaVuSans-32"/>
      <use x="3146.5" xlink:href="#DejaVuSans-2e"/>
      <use x="3178.287109" xlink:href="#DejaVuSans-32"/>
      <use x="3241.910156" xlink:href="#DejaVuSans-39"/>
      <use x="3305.533203" xlink:href="#DejaVuSans-36"/>
      <use x="3369.15625" xlink:href="#DejaVuSans-2e"/>
      <use x="3400.943359" xlink:href="#DejaVuSans-62"/>
      <use x="3464.419922" xlink:href="#DejaVuSans-69"/>
      <use x="3492.203125" xlink:href="#DejaVuSans-6e"/>
      <use x="3555.582031" xlink:href="#DejaVuSans-2d"/>
      <use x="3591.666016" xlink:href="#DejaVuSans-50"/>
      <use x="3651.96875" xlink:href="#DejaVuSans-30"/>
     </g>
    </g>
    <g id="line2d_55">
     <path d="M 177.39 127.923212 
L 197.39 127.923212 
" style="fill:none;stroke:#c44e52;stroke-linecap:round;stroke-width:1.75;"/>
    </g>
    <g id="line2d_56"/>
    <g id="text_28">
     <!-- ensemble-run-nationwide_3n-20180905085329121812-GA-3-1.907.bin-P0 -->
     <g style="fill:#262626;" transform="translate(205.39 131.423212)scale(0.1 -0.1)">
      <use xlink:href="#DejaVuSans-65"/>
      <use x="61.523438" xlink:href="#DejaVuSans-6e"/>
      <use x="124.902344" xlink:href="#DejaVuSans-73"/>
      <use x="177.001953" xlink:href="#DejaVuSans-65"/>
      <use x="238.525391" xlink:href="#DejaVuSans-6d"/>
      <use x="335.9375" xlink:href="#DejaVuSans-62"/>
      <use x="399.414062" xlink:href="#DejaVuSans-6c"/>
      <use x="427.197266" xlink:href="#DejaVuSans-65"/>
      <use x="488.720703" xlink:href="#DejaVuSans-2d"/>
      <use x="524.804688" xlink:href="#DejaVuSans-72"/>
      <use x="565.917969" xlink:href="#DejaVuSans-75"/>
      <use x="629.296875" xlink:href="#DejaVuSans-6e"/>
      <use x="692.675781" xlink:href="#DejaVuSans-2d"/>
      <use x="728.759766" xlink:href="#DejaVuSans-6e"/>
      <use x="792.138672" xlink:href="#DejaVuSans-61"/>
      <use x="853.417969" xlink:href="#DejaVuSans-74"/>
      <use x="892.626953" xlink:href="#DejaVuSans-69"/>
      <use x="920.410156" xlink:href="#DejaVuSans-6f"/>
      <use x="981.591797" xlink:href="#DejaVuSans-6e"/>
      <use x="1044.970703" xlink:href="#DejaVuSans-77"/>
      <use x="1126.757812" xlink:href="#DejaVuSans-69"/>
      <use x="1154.541016" xlink:href="#DejaVuSans-64"/>
      <use x="1218.017578" xlink:href="#DejaVuSans-65"/>
      <use x="1279.541016" xlink:href="#DejaVuSans-5f"/>
      <use x="1329.541016" xlink:href="#DejaVuSans-33"/>
      <use x="1393.164062" xlink:href="#DejaVuSans-6e"/>
      <use x="1456.542969" xlink:href="#DejaVuSans-2d"/>
      <use x="1492.626953" xlink:href="#DejaVuSans-32"/>
      <use x="1556.25" xlink:href="#DejaVuSans-30"/>
      <use x="1619.873047" xlink:href="#DejaVuSans-31"/>
      <use x="1683.496094" xlink:href="#DejaVuSans-38"/>
      <use x="1747.119141" xlink:href="#DejaVuSans-30"/>
      <use x="1810.742188" xlink:href="#DejaVuSans-39"/>
      <use x="1874.365234" xlink:href="#DejaVuSans-30"/>
      <use x="1937.988281" xlink:href="#DejaVuSans-35"/>
      <use x="2001.611328" xlink:href="#DejaVuSans-30"/>
      <use x="2065.234375" xlink:href="#DejaVuSans-38"/>
      <use x="2128.857422" xlink:href="#DejaVuSans-35"/>
      <use x="2192.480469" xlink:href="#DejaVuSans-33"/>
      <use x="2256.103516" xlink:href="#DejaVuSans-32"/>
      <use x="2319.726562" xlink:href="#DejaVuSans-39"/>
      <use x="2383.349609" xlink:href="#DejaVuSans-31"/>
      <use x="2446.972656" xlink:href="#DejaVuSans-32"/>
      <use x="2510.595703" xlink:href="#DejaVuSans-31"/>
      <use x="2574.21875" xlink:href="#DejaVuSans-38"/>
      <use x="2637.841797" xlink:href="#DejaVuSans-31"/>
      <use x="2701.464844" xlink:href="#DejaVuSans-32"/>
      <use x="2765.087891" xlink:href="#DejaVuSans-2d"/>
      <use x="2801.21875" xlink:href="#DejaVuSans-47"/>
      <use x="2878.708984" xlink:href="#DejaVuSans-41"/>
      <use x="2947.085938" xlink:href="#DejaVuSans-2d"/>
      <use x="2983.169922" xlink:href="#DejaVuSans-33"/>
      <use x="3046.792969" xlink:href="#DejaVuSans-2d"/>
      <use x="3082.876953" xlink:href="#DejaVuSans-31"/>
      <use x="3146.5" xlink:href="#DejaVuSans-2e"/>
      <use x="3178.287109" xlink:href="#DejaVuSans-39"/>
      <use x="3241.910156" xlink:href="#DejaVuSans-30"/>
      <use x="3305.533203" xlink:href="#DejaVuSans-37"/>
      <use x="3369.15625" xlink:href="#DejaVuSans-2e"/>
      <use x="3400.943359" xlink:href="#DejaVuSans-62"/>
      <use x="3464.419922" xlink:href="#DejaVuSans-69"/>
      <use x="3492.203125" xlink:href="#DejaVuSans-6e"/>
      <use x="3555.582031" xlink:href="#DejaVuSans-2d"/>
      <use x="3591.666016" xlink:href="#DejaVuSans-50"/>
      <use x="3651.96875" xlink:href="#DejaVuSans-30"/>
     </g>
    </g>
    <g id="line2d_57">
     <path d="M 177.39 142.879462 
L 197.39 142.879462 
" style="fill:none;stroke:#8172b2;stroke-linecap:round;stroke-width:1.75;"/>
    </g>
    <g id="line2d_58"/>
    <g id="text_29">
     <!-- Real -->
     <g style="fill:#262626;" transform="translate(205.39 146.379462)scale(0.1 -0.1)">
      <use xlink:href="#DejaVuSans-52"/>
      <use x="69.419922" xlink:href="#DejaVuSans-65"/>
      <use x="130.943359" xlink:href="#DejaVuSans-61"/>
      <use x="192.222656" xlink:href="#DejaVuSans-6c"/>
     </g>
    </g>
   </g>
  </g>
 </g>
 <defs>
  <clipPath id="pa4a58e6f03">
   <rect height="546.6384" width="1044.018" x="168.39" y="85.1904"/>
  </clipPath>
 </defs>
</svg>
